# xmcd
#
# Track frame offsets:
#	150
#	21164
#	36716
#	52294
#	67332
#	85577
#	104570
#	123466
#	140585
#	158518
#	174094
#	189129
#	206654
#	221129
#	235331
#	252036
#
# Disc length: 3577 seconds
#
# Revision: 2
# Processed by: cddbd v1.5.2PL0 Copyright (c) Steve Scherf et al.
# Submitted via: EasyCDDAExtractor 12.0.0.1
#
DISCID=eb0df710
DTITLE=Alejandra Guzman - Reina De Corazones - La Historia...
DYEAR=2007
DGENRE=Latin
TTITLE0=Hacer El Amor Con Otro
TTITLE1=Eternamente Bella
TTITLE2=Reina De Corazones
TTITLE3=Mala Hierba
TTITLE4=Mirala, Miralo
TTITLE5=Libre
TTITLE6=Ven
TTITLE7=Toda La Mitad
TTITLE8=Algo Natural
TTITLE9=Diablo
TTITLE10=De Verdad
TTITLE11=Volvere A Amar
TTITLE12=Lipstick
TTITLE13=Tu Eres Mi Luz
TTITLE14=Volverte A Amar
TTITLE15=Quiero Estar Contigo
EXTD=
EXTT0=
EXTT1=
EXTT2=
EXTT3=
EXTT4=
EXTT5=
EXTT6=
EXTT7=
EXTT8=
EXTT9=
EXTT10=
EXTT11=
EXTT12=
EXTT13=
EXTT14=
EXTT15=
PLAYORDER=
